<?xml version="1.0" encoding="UTF-8"?>
<!DOCTYPE svg PUBLIC "-//W3C//DTD SVG 1.1//EN" "http://www.w3.org/Graphics/SVG/1.1/DTD/svg11.dtd">
<!-- Creator: CorelDRAW 2018 (64-Bit) -->
<svg xmlns="http://www.w3.org/2000/svg" xml:space="preserve" width="4.64229in" height="1.04098in" version="1.1" style="shape-rendering:geometricPrecision; text-rendering:geometricPrecision; image-rendering:optimizeQuality; fill-rule:evenodd; clip-rule:evenodd"
viewBox="0 0 4642.29 1040.98"
 xmlns:xlink="http://www.w3.org/1999/xlink">
 <defs>
  <style type="text/css">
   <![CDATA[
    .fil1 {fill:#FEFEFE}
    .fil2 {fill:black;fill-rule:nonzero}
    .fil0 {fill:url(#id0)}
   ]]>
  </style>
  <linearGradient id="id0" gradientUnits="userSpaceOnUse" x1="124.33" y1="137.27" x2="722.09" y2="903.71">
   <stop offset="0" style="stop-opacity:1; stop-color:#00A859"/>
   <stop offset="1" style="stop-opacity:1; stop-color:#076943"/>
  </linearGradient>
 </defs>
 <g id="Layer_x0020_1">
  <metadata id="CorelCorpID_0Corel-Layer"/>
  <g id="_2160491984240">
   <path class="fil0" d="M0.06 837.98c46.74,21.01 411.61,203 423.18,203 11.57,0 376.48,-182 423.11,-203l0.07 -837.64 -846.41 -0.34 0.06 837.98z"/>
   <polygon class="fil1" points="115.93,124.35 730.54,124.35 730.54,283.7 115.93,283.7 "/>
   <polygon class="fil1" points="115.93,347.55 542.38,347.55 542.38,506.9 115.93,506.9 "/>
   <polygon class="fil1" points="115.93,573.72 329.16,573.72 329.16,733.07 115.93,733.07 "/>
   <polygon class="fil2" points="1440.31,173.39 1440.31,119.46 1035.85,119.46 1035.85,709.3 1098.21,709.3 1098.21,459.04 1403.24,459.04 1403.24,405.11 1098.21,405.11 1098.21,173.39 "/>
   <path id="1" class="fil2" d="M1578.51 169.18c25.28,0 43.81,-19.38 43.81,-43.82 0,-22.75 -19.38,-41.29 -43.81,-41.29 -24.44,0 -43.82,19.38 -43.82,42.13 0,23.59 19.38,42.98 43.82,42.98zm-30.33 540.12l59.83 0 0 -443.22 -59.83 0 0 443.22z"/>
   <path id="2" class="fil2" d="M2000.66 262.71c-76.68,0 -136.5,31.18 -168.52,85.1l0 -81.73 -57.3 0 0 443.22 59.83 0 0 -232.56c0,-101.12 59.83,-160.1 155.04,-160.1 84.26,0 133.13,48.03 133.13,141.56l0 251.1 59.83 0 0 -257c0,-127.24 -74.15,-189.59 -182.01,-189.59z"/>
   <path id="3" class="fil2" d="M2500.34 262.71c-69.94,0 -135.67,21.91 -180.32,59.83l26.96 44.66c36.23,-32.02 90.16,-52.24 147.46,-52.24 82.58,0 125.55,41.29 125.55,117.13l0 26.96 -140.72 0c-127.24,0 -171.06,57.3 -171.06,125.55 0,76.68 61.51,128.92 161.79,128.92 73.31,0 125.55,-27.81 152.52,-73.31l0 69.09 57.3 0 0 -274.7c0,-114.59 -64.88,-171.89 -179.48,-171.89zm-21.07 403.62c-70.78,0 -112.07,-32.02 -112.07,-83.42 0,-45.5 27.81,-79.21 113.76,-79.21l139.03 0 0 72.47c-23.59,58.14 -73.31,90.16 -140.72,90.16z"/>
   <path id="4" class="fil2" d="M3068.27 262.71c-76.68,0 -136.5,31.18 -168.52,85.1l0 -81.73 -57.3 0 0 443.22 59.83 0 0 -232.56c0,-101.12 59.83,-160.1 155.04,-160.1 84.26,0 133.13,48.03 133.13,141.56l0 251.1 59.83 0 0 -257c0,-127.24 -74.15,-189.59 -182.01,-189.59z"/>
   <polygon id="5" class="fil2" points="3441.55,659.58 3720.46,305.68 3720.46,266.08 3369.93,266.08 3369.93,316.63 3643.78,316.63 3364.87,669.7 3364.87,709.3 3725.52,709.3 3725.52,659.58 "/>
   <path id="6" class="fil2" d="M3998.53 262.71c-69.94,0 -135.67,21.91 -180.32,59.83l26.96 44.66c36.23,-32.02 90.16,-52.24 147.46,-52.24 82.58,0 125.55,41.29 125.55,117.13l0 26.96 -140.72 0c-127.24,0 -171.06,57.3 -171.06,125.55 0,76.68 61.51,128.92 161.79,128.92 73.31,0 125.55,-27.81 152.52,-73.31l0 69.09 57.3 0 0 -274.7c0,-114.59 -64.88,-171.89 -179.48,-171.89zm-21.07 403.62c-70.78,0 -112.07,-32.02 -112.07,-83.42 0,-45.5 27.81,-79.21 113.76,-79.21l139.03 0 0 72.47c-23.59,58.14 -73.31,90.16 -140.72,90.16z"/>
   <path id="7" class="fil2" d="M4459.44 713.51c115.44,0 182.85,-49.71 182.85,-126.39 0,-170.07 -287.33,-79.91 -287.33,-199.7 0,-42.13 35.39,-73.31 115.44,-73.31 45.5,0 91.85,10.96 130.61,37.92l26.12 -48.03c-37.07,-25.28 -99.43,-41.29 -156.73,-41.29 -112.91,0 -175.27,53.93 -175.27,126.39 0,175.26 287.33,84.4 287.33,199.7 0,43.82 -34.55,72.46 -118.81,72.46 -62.35,0 -122.18,-21.91 -157.57,-49.71l-26.96 47.19c36.23,31.18 107.01,54.77 180.32,54.77z"/>
  </g>
 </g>
</svg>
